<svg id="visual" viewBox="0 0 900 600" width="900" height="600" xmlns="http://www.w3.org/2000/svg" xmlns:xlink="http://www.w3.org/1999/xlink" version="1.1"><path d="M0 417L15 419C30 421 60 425 90 417.2C120 409.3 150 389.7 180 375C210 360.3 240 350.7 270 334.2C300 317.7 330 294.3 360 306.2C390 318 420 365 450 386.2C480 407.3 510 402.7 540 407.7C570 412.7 600 427.3 630 416.3C660 405.3 690 368.7 720 371.5C750 374.3 780 416.7 810 417.3C840 418 870 377 885 356.5L900 336L900 601L885 601C870 601 840 601 810 601C780 601 750 601 720 601C690 601 660 601 630 601C600 601 570 601 540 601C510 601 480 601 450 601C420 601 390 601 360 601C330 601 300 601 270 601C240 601 210 601 180 601C150 601 120 601 90 601C60 601 30 601 15 601L0 601Z" fill="#1163de" stroke-linecap="round" stroke-linejoin="miter"></path></svg>