<svg id="visual" viewBox="0 0 900 600" width="900" height="600" xmlns="http://www.w3.org/2000/svg" xmlns:xlink="http://www.w3.org/1999/xlink" version="1.1"><path d="M0 422L15 413C30 404 60 386 90 398.7C120 411.3 150 454.7 180 449.7C210 444.7 240 391.3 270 377.8C300 364.3 330 390.7 360 418C390 445.3 420 473.7 450 484.2C480 494.7 510 487.3 540 479.5C570 471.7 600 463.3 630 448.8C660 434.3 690 413.7 720 395.3C750 377 780 361 810 370.3C840 379.7 870 414.3 885 431.7L900 449L900 601L885 601C870 601 840 601 810 601C780 601 750 601 720 601C690 601 660 601 630 601C600 601 570 601 540 601C510 601 480 601 450 601C420 601 390 601 360 601C330 601 300 601 270 601C240 601 210 601 180 601C150 601 120 601 90 601C60 601 30 601 15 601L0 601Z" fill="#3166b6" stroke-linecap="round" stroke-linejoin="miter"></path></svg>