<svg id="visual" viewBox="0 0 900 600" width="900" height="600" xmlns="http://www.w3.org/2000/svg" xmlns:xlink="http://www.w3.org/1999/xlink" version="1.1"><path d="M0 429L18.8 444.7C37.7 460.3 75.3 491.7 112.8 494.3C150.3 497 187.7 471 225.2 463.3C262.7 455.7 300.3 466.3 337.8 467.5C375.3 468.7 412.7 460.3 450.2 465.7C487.7 471 525.3 490 562.8 486.2C600.3 482.3 637.7 455.7 675.2 441.3C712.7 427 750.3 425 787.8 426.8C825.3 428.7 862.7 434.3 881.3 437.2L900 440L900 601L881.3 601C862.7 601 825.3 601 787.8 601C750.3 601 712.7 601 675.2 601C637.7 601 600.3 601 562.8 601C525.3 601 487.7 601 450.2 601C412.7 601 375.3 601 337.8 601C300.3 601 262.7 601 225.2 601C187.7 601 150.3 601 112.8 601C75.3 601 37.7 601 18.8 601L0 601Z" fill="#456087" stroke-linecap="round" stroke-linejoin="miter"></path></svg>