<svg id="visual" viewBox="0 0 900 600" width="900" height="600" xmlns="http://www.w3.org/2000/svg" xmlns:xlink="http://www.w3.org/1999/xlink" version="1.1"><path d="M0 446L16.7 446.7C33.3 447.3 66.7 448.7 100 450.3C133.3 452 166.7 454 200 447.2C233.3 440.3 266.7 424.7 300 419.5C333.3 414.3 366.7 419.7 400 427.7C433.3 435.7 466.7 446.3 500 441.7C533.3 437 566.7 417 600 419C633.3 421 666.7 445 700 449.5C733.3 454 766.7 439 800 437.7C833.3 436.3 866.7 448.7 883.3 454.8L900 461L900 601L883.3 601C866.7 601 833.3 601 800 601C766.7 601 733.3 601 700 601C666.7 601 633.3 601 600 601C566.7 601 533.3 601 500 601C466.7 601 433.3 601 400 601C366.7 601 333.3 601 300 601C266.7 601 233.3 601 200 601C166.7 601 133.3 601 100 601C66.7 601 33.3 601 16.7 601L0 601Z" fill="#3c629b" stroke-linecap="round" stroke-linejoin="miter"></path></svg>