<svg id="visual" viewBox="0 0 900 600" width="900" height="600" xmlns="http://www.w3.org/2000/svg" xmlns:xlink="http://www.w3.org/1999/xlink" version="1.1"><path d="M0 351L13.7 341C27.3 331 54.7 311 82 294.5C109.3 278 136.7 265 163.8 288.8C191 312.7 218 373.3 245.2 375.5C272.3 377.7 299.7 321.3 327 313.7C354.3 306 381.7 347 409 373.7C436.3 400.3 463.7 412.7 491 414.5C518.3 416.3 545.7 407.7 573 406.8C600.3 406 627.7 413 654.8 389.2C682 365.3 709 310.7 736.2 311.7C763.3 312.7 790.7 369.3 818 392.8C845.3 416.3 872.7 406.7 886.3 401.8L900 397L900 601L886.3 601C872.7 601 845.3 601 818 601C790.7 601 763.3 601 736.2 601C709 601 682 601 654.8 601C627.7 601 600.3 601 573 601C545.7 601 518.3 601 491 601C463.7 601 436.3 601 409 601C381.7 601 354.3 601 327 601C299.7 601 272.3 601 245.2 601C218 601 191 601 163.8 601C136.7 601 109.3 601 82 601C54.7 601 27.3 601 13.7 601L0 601Z" fill="#0066ff" stroke-linecap="round" stroke-linejoin="miter"></path></svg>