<svg id="visual" viewBox="0 0 900 600" width="900" height="600" xmlns="http://www.w3.org/2000/svg" xmlns:xlink="http://www.w3.org/1999/xlink" version="1.1"><g transform="translate(476.418406712976 340.2390907158715)"><path d="M69.8 -138.9C108.3 -98.6 169.8 -116.1 185.6 -102.5C201.5 -89 171.7 -44.5 159.9 -6.8C148.1 30.8 154.1 61.7 139.8 77.8C125.5 94 90.7 95.5 64 127.9C37.3 160.3 18.7 223.7 -7.2 236.1C-33 248.5 -66 210 -114.8 190.3C-163.6 170.6 -228.1 169.8 -240.6 141.2C-253.1 112.7 -213.6 56.3 -196.5 9.8C-179.5 -36.7 -185 -73.3 -181.5 -117.5C-178 -161.7 -165.5 -213.3 -133.8 -257.5C-102 -301.7 -51 -338.3 -17.7 -307.7C15.6 -277.1 31.3 -179.1 69.8 -138.9" fill="#446878"></path></g></svg>