<svg id="visual" viewBox="0 0 900 600" width="900" height="600" xmlns="http://www.w3.org/2000/svg" xmlns:xlink="http://www.w3.org/1999/xlink" version="1.1"><g transform="translate(441.3438458032923 284.9780903704347)"><path d="M109.6 -168.4C141.5 -171.4 166.4 -140.9 159.5 -107.3C152.6 -73.7 113.8 -36.8 125.2 6.6C136.6 50 198.2 100 206.5 136.1C214.9 172.2 169.9 194.3 126.6 200.3C83.3 206.3 41.7 196.2 -0.7 197.3C-43 198.5 -86 211 -116.7 197.7C-147.5 184.5 -166 145.5 -177 108.2C-188 71 -191.5 35.5 -189.8 1C-188 -33.5 -181 -67 -169 -102.4C-156.9 -137.7 -139.7 -175 -110.7 -173.7C-81.7 -172.5 -40.8 -132.7 -1 -131C38.8 -129.3 77.7 -165.5 109.6 -168.4" fill="#446878"></path></g></svg>