<svg id="visual" viewBox="0 0 900 600" width="900" height="600" xmlns="http://www.w3.org/2000/svg" xmlns:xlink="http://www.w3.org/1999/xlink" version="1.1"><g transform="translate(485.3000481387052 330.0440185277045)"><path d="M122.5 -203C151.6 -171.8 163.1 -125.8 171.6 -84.9C180.1 -44 185.6 -8.3 189.3 33.5C193.1 75.3 195.2 123.1 171 144.7C146.9 166.4 96.6 161.9 53.7 167.5C10.8 173 -24.6 188.7 -69.6 194.8C-114.6 200.9 -169.1 197.3 -208.6 170.4C-248.1 143.5 -272.5 93.1 -258 50.4C-243.4 7.7 -190 -27.3 -167.1 -75.9C-144.3 -124.5 -152.2 -186.8 -129.4 -220.9C-106.7 -255 -53.3 -261 -3.3 -255.8C46.7 -250.6 93.4 -234.3 122.5 -203" fill="#446878"></path></g></svg>